<svg xmlns="http://www.w3.org/2000/svg" width="123.206" height="107.317" viewBox="0 0 123.206 107.317"><g id="Group_299" data-name="Group 299" transform="translate(-80.677 -8262.021)"><path id="Path_2361" data-name="Path 2361" d="M148.264,8300.029l-2.518-.052,2.515.054a9.189,9.189,0,0,0,3.8,5.936A9.2,9.2,0,0,1,148.264,8300.029Z" fill="none"></path><path id="Path_2362" data-name="Path 2362" d="M148.059,8271.578c-.143-.06-.38.052-.834.588-.057.067-.137.155-.237.262.1-.107.182-.2.24-.264C147.68,8271.632,147.918,8271.52,148.059,8271.578Z" fill="none"></path><path id="Path_2363" data-name="Path 2363" d="M145.664,8298.7c.048-.781.091-1.517.133-2.212-.042.694-.087,1.428-.134,2.212Z" fill="none"></path><path id="Path_2364" data-name="Path 2364" d="M156.42,8293.68l.039,0Z" fill="none"></path><path id="Path_2365" data-name="Path 2365" d="M139.113,8285.827a12.19,12.19,0,0,1,1.047-4.047,12.2,12.2,0,0,0-1.05,4.048,11.129,11.129,0,0,0,3.615,9.1A11.126,11.126,0,0,1,139.113,8285.827Z" fill="none"></path><path id="Path_2366" data-name="Path 2366" d="M141.843,8364.348c.741-12.858,2.714-47.2,3.745-64.374h0C144.555,8317.147,142.581,8351.492,141.843,8364.348Z" fill="none"></path><path id="Path_2367" data-name="Path 2367" d="M169.628,8301.5c.567.522.6.746.474.871.126-.124.1-.347-.473-.872-.96-.885-6.582-7.452-12.155-7.809-.3-.02-.594-.021-.882-.015.288-.006.58,0,.883.016C163.047,8294.053,168.667,8300.62,169.628,8301.5Z" fill="none"></path><path id="Path_2368" data-name="Path 2368" d="M144.311,8297.377v-1.411h0v1.41c-.049.393-.1.828-.152,1.3h0C144.214,8298.2,144.265,8297.767,144.311,8297.377Z" fill="none"></path><path id="Path_2369" data-name="Path 2369" d="M156.361,8307.369l-.044-.007c.016,0,.029.006.045.007a15.064,15.064,0,0,0,10.509-3.08A15.085,15.085,0,0,1,156.361,8307.369Z" fill="none"></path><path id="Path_2370" data-name="Path 2370" d="M149.754,8296.737a5.8,5.8,0,0,0-1.3,1.959h0A5.786,5.786,0,0,1,149.754,8296.737Z" fill="none"></path><path id="Path_2371" data-name="Path 2371" d="M148.238,8271.811c.112.275.424.948.947,2.011.61,1.24,3.993,5.043,4.129,12.345-.133-7.3-3.517-11.1-4.128-12.344-.525-1.063-.835-1.734-.946-2.014a.472.472,0,0,0-.15-.21A.463.463,0,0,1,148.238,8271.811Z" fill="none"></path><path id="Path_2372" data-name="Path 2372" d="M138.524,8303.473a8.331,8.331,0,0,0,3.07-3.3A8.357,8.357,0,0,1,138.524,8303.473Z" fill="none"></path><path id="Path_2373" data-name="Path 2373" d="M132.33,8304.921c-3.648-.39-7.273-3.325-9.563-5.5C125.056,8301.6,128.679,8304.533,132.33,8304.921Z" fill="none"></path><path id="Path_2374" data-name="Path 2374" d="M144.007,8299.962c-1.358,11.566-4.771,40.666-7.174,61.465,2.4-20.8,5.817-49.9,7.175-61.465Z" fill="none"></path><path id="Path_2375" data-name="Path 2375" d="M148.689,8295.127a10.327,10.327,0,0,1-2.354.923A10.235,10.235,0,0,0,148.689,8295.127Z" fill="none"></path><path id="Path_2376" data-name="Path 2376" d="M133.768,8291.289c7.2.359,8.1,7.34,8.1,7.34l2.209.044-2.209-.048s-.9-6.98-8.1-7.337c-6.616-.329-10.643,3.369-11.789,3.983l-.192.1.192-.1C123.125,8294.659,127.147,8290.959,133.768,8291.289Z" fill="none"></path><path id="Path_2377" data-name="Path 2377" d="M203.787,8297.655a.268.268,0,0,0-.063-.043c-.663-.414-1.312-.844-1.995-1.229q-12.971-7.354-25.961-14.7-17.114-9.68-34.206-19.394a1.616,1.616,0,0,0-1.934.1c-1.9,1.285-3.84,2.513-5.753,3.776q-16.512,10.866-33.025,21.734c-6.195,4.075-12.521,7.951-18.619,12.2-.635.442-.823.57-1.4.992a.007.007,0,0,0-.007.007,1.21,1.21,0,0,0-.1.087.26.26,0,0,0-.055.163.266.266,0,0,0,.262.271c.139.007.3.007.477.014,3.757.157,7.507.357,11.257.529,5.111.242,10.228.506,15.339.713a1.4,1.4,0,0,1,1.547,1.229c1.968,7.572,3.991,15.132,5.98,22.7q2.435,9.249,4.842,18.516,2.133,8.146,4.24,16.3c.394,1.513.76,3.026,1.174,4.525.166.593.283,1.034.511,1.763.256.8.428,1.292,1.174,1.313,2.01.059,3.757.1,5.629.065l1.913.007.9.007v0h0c.279-2.431.584-5.079.907-7.873,2.4-20.8,5.816-49.9,7.174-61.465h-2.335a2.1,2.1,0,0,1-.078.212,8.331,8.331,0,0,1-3.07,3.3,9.543,9.543,0,0,1-5.87,1.491c-.108-.007-.216-.031-.324-.043-3.651-.388-7.274-3.324-9.563-5.5-1.139-1.083-1.953-1.978-2.265-2.265-.759-.7-.557-.864-.314-.973.226-.1.769-.373,1.6-.811l.192-.1c1.146-.614,5.173-4.312,11.789-3.983,7.2.356,8.1,7.337,8.1,7.337l2.209.048.084,0c.055-.471.1-.906.152-1.3v-1.41a5.125,5.125,0,0,1-1.586-1.033,11.129,11.129,0,0,1-3.615-9.1,12.2,12.2,0,0,1,1.05-4.048c1.869-4.341,5.669-8.117,6.828-9.353.1-.106.18-.194.237-.262.454-.536.691-.647.834-.588a.13.13,0,0,1,.031.021.472.472,0,0,1,.15.21c.111.279.421.95.946,2.014.611,1.241,3.995,5.04,4.128,12.344.006.3.015.6.009.913a8.742,8.742,0,0,1-4.634,8.048,10.235,10.235,0,0,1-2.354.923c-.228.058-.412.095-.519.114l-.019.32c-.042.7-.085,1.431-.133,2.212h2.791a5.8,5.8,0,0,1,1.3-1.959,9.534,9.534,0,0,1,6.666-3.058l.039,0c.043,0,.09,0,.133,0,.288-.006.579,0,.882.015,5.573.356,11.2,6.924,12.155,7.809.57.525.6.748.473.872a.506.506,0,0,1-.161.1c-.244.108-.842.409-1.787.912-.275.146-.7.485-1.283.9a15.064,15.064,0,0,1-10.509,3.08c-.016,0-.029,0-.045-.007a8.618,8.618,0,0,1-8.056-7.331l-2.515-.054-.158,0c-1.031,17.175-3,51.516-3.745,64.374-.166,2.9-.27,4.71-.285,4.98h0v0s21.319.008,30.829.008c1.616-.008,1.727-.129,1.727-1.863v-.593q.041-30.952.09-61.919c0-.7-.055-1.891.649-1.991.864-.122.869.977.967,1.885a108.471,108.471,0,0,0,4.585,21.428,121.13,121.13,0,0,0,13.488,28.557c.518.814.684,1.106,1.616,2.5-1.45-4-2.479-7.15-3.57-10.585-.194-.655.062-.728.448-.271q3.088,3.158,6.175,6.31c-.884-1.706-9.51-17.229-11.554-23.982a115.5,115.5,0,0,1-3.723-14.433,101.227,101.227,0,0,1-1.388-11.156c-.055-1.085.235-1.691,1.34-1.849,1.464-.2,2.921-.506,4.392-.728,4.282-.656,8.571-1.292,12.853-1.948,1.056-.164,2.092-.378,3.142-.571a.26.26,0,0,0,.1-.021.273.273,0,0,0,.063-.456Z" fill="#5c5e9c"></path><path id="Path_2378" data-name="Path 2378" d="M145.588,8299.975l.158,0-.158,0Z" fill="#34186a"></path><path id="Path_2379" data-name="Path 2379" d="M135.926,8369.3h0c.279-2.431.584-5.08.906-7.873C136.51,8364.221,136.205,8366.869,135.926,8369.3Z" fill="#34186a"></path><path id="Path_2380" data-name="Path 2380" d="M148.059,8271.578a.13.13,0,0,1,.031.021A.13.13,0,0,0,148.059,8271.578Z" fill="#34186a"></path><path id="Path_2381" data-name="Path 2381" d="M140.16,8281.78c1.872-4.345,5.675-8.12,6.828-9.353C145.829,8273.663,142.029,8277.439,140.16,8281.78Z" fill="#34186a"></path><path id="Path_2382" data-name="Path 2382" d="M156.459,8293.677c.043,0,.09,0,.133,0C156.549,8293.68,156.5,8293.676,156.459,8293.677Z" fill="#34186a"></path><path id="Path_2383" data-name="Path 2383" d="M156.317,8307.362a9.115,9.115,0,0,1-4.254-1.4A9.1,9.1,0,0,0,156.317,8307.362Z" fill="#34186a"></path><path id="Path_2384" data-name="Path 2384" d="M168.151,8303.386c-.274.146-.7.485-1.28.9.58-.418,1.008-.757,1.283-.9.945-.5,1.543-.8,1.787-.912a.506.506,0,0,0,.161-.1.512.512,0,0,1-.163.1C169.7,8302.579,169.1,8302.886,168.151,8303.386Z" fill="#34186a"></path><path id="Path_2385" data-name="Path 2385" d="M132.653,8304.963c-.108-.006-.215-.03-.323-.042.108.012.216.036.324.043a9.543,9.543,0,0,0,5.87-1.491A9.546,9.546,0,0,1,132.653,8304.963Z" fill="#34186a"></path><path id="Path_2386" data-name="Path 2386" d="M120.187,8296.184c.224-.1.769-.37,1.6-.812-.827.438-1.37.711-1.6.811-.243.108-.445.274.314.973.312.287,1.126,1.182,2.265,2.265-1.137-1.083-1.949-1.977-2.262-2.265C119.745,8296.455,119.946,8296.291,120.187,8296.184Z" fill="#34186a"></path><path id="Path_2387" data-name="Path 2387" d="M144.159,8298.675h0Z" fill="#34186a"></path><path id="Path_2388" data-name="Path 2388" d="M141.672,8299.96a2.116,2.116,0,0,1-.078.214,2.1,2.1,0,0,0,.078-.212h2.335v0Z" fill="#34186a"></path><path id="Path_2389" data-name="Path 2389" d="M141.843,8364.348c-.166,2.895-.271,4.7-.288,4.98h0C141.573,8369.058,141.677,8367.248,141.843,8364.348Z" fill="#34186a"></path><path id="Path_2390" data-name="Path 2390" d="M156.42,8293.68a9.534,9.534,0,0,0-6.666,3.058A9.544,9.544,0,0,1,156.42,8293.68Z" fill="#34186a"></path><path id="Path_2391" data-name="Path 2391" d="M148.454,8298.7h0Z" fill="#34186a"></path><path id="Path_2392" data-name="Path 2392" d="M145.8,8296.484l.019-.32c.107-.02.291-.057.519-.114-.229.058-.412.094-.519.113C145.81,8296.266,145.8,8296.379,145.8,8296.484Z" fill="#34186a"></path><path id="Path_2393" data-name="Path 2393" d="M142.725,8294.933a5.125,5.125,0,0,0,1.586,1.033v0A5.065,5.065,0,0,1,142.725,8294.933Z" fill="#34186a"></path><path id="Path_2394" data-name="Path 2394" d="M148.689,8295.127a8.742,8.742,0,0,0,4.634-8.048c.006-.314,0-.611-.009-.913.005.3.015.6.009.911A8.752,8.752,0,0,1,148.689,8295.127Z" fill="#34186a"></path></g></svg>